<svg width="27" height="24" viewBox="0 0 27 24" fill="none" xmlns="http://www.w3.org/2000/svg">
<path d="M7.33317 9.04167C6.26887 9.04167 5.40609 9.92777 5.40609 11.0208C5.40609 12.1139 6.26887 13 7.33317 13C8.39747 13 9.26025 12.1139 9.26025 11.0208C9.26025 9.92777 8.39747 9.04167 7.33317 9.04167Z" fill="#626262"/>
<path d="M13.4998 9.04167C12.4355 9.04167 11.5728 9.92777 11.5728 11.0208C11.5728 12.1139 12.4355 13 13.4998 13C14.5641 13 15.4269 12.1139 15.4269 11.0208C15.4269 9.92777 14.5641 9.04167 13.4998 9.04167Z" fill="#626262"/>
<path d="M17.7394 11.0208C17.7394 9.92777 18.6022 9.04167 19.6665 9.04167C20.7308 9.04167 21.5936 9.92777 21.5936 11.0208C21.5936 12.1139 20.7308 13 19.6665 13C18.6022 13 17.7394 12.1139 17.7394 11.0208Z" fill="#626262"/>
<path fill-rule="evenodd" clip-rule="evenodd" d="M19.8218 1.27192C15.6682 0.908132 11.493 0.88702 7.33617 1.20879L7.03827 1.23185C3.07417 1.53869 0.0102539 4.93151 0.0102539 9.01429V22.5C0.0102539 22.9178 0.22403 23.3049 0.573191 23.5192C0.922352 23.7336 1.35552 23.7438 1.71385 23.546L7.74299 20.2183C8.02344 20.0635 8.33686 19.9825 8.65524 19.9825H22.4939C24.2392 19.9825 25.7349 18.701 26.0477 16.9375C26.6818 13.3636 26.7319 9.70612 26.1959 6.11527L26.038 5.05709C25.7505 3.13057 24.2159 1.65678 22.3251 1.49117L19.8218 1.27192ZM7.50996 3.57707C11.5435 3.26485 15.5949 3.28533 19.6253 3.63833L22.1286 3.85758C22.9554 3.93 23.6265 4.57448 23.7522 5.41693L23.9101 6.47511C24.4072 9.80531 24.3607 13.1973 23.7727 16.5118C23.6601 17.1464 23.1219 17.6075 22.4939 17.6075H8.65524C7.9548 17.6075 7.26528 17.7857 6.64829 18.1263L2.32275 20.5137V9.01429C2.32275 6.17394 4.45429 3.8136 7.21206 3.60013L7.50996 3.57707Z" fill="#626262"/>
</svg>
