<svg width="31" height="22" viewBox="0 0 31 22" fill="none" xmlns="http://www.w3.org/2000/svg">
<path fill-rule="evenodd" clip-rule="evenodd" d="M9.71875 11C9.71875 7.72081 12.3071 5.0625 15.5 5.0625C18.6929 5.0625 21.2812 7.72081 21.2812 11C21.2812 14.2792 18.6929 16.9375 15.5 16.9375C12.3071 16.9375 9.71875 14.2792 9.71875 11ZM15.5 7.4375C13.5843 7.4375 12.0312 9.03249 12.0312 11C12.0312 12.9675 13.5843 14.5625 15.5 14.5625C17.4157 14.5625 18.9688 12.9675 18.9688 11C18.9688 9.03249 17.4157 7.4375 15.5 7.4375Z" fill="#626262"/>
<path fill-rule="evenodd" clip-rule="evenodd" d="M3.66528 8.85673C3.01914 9.81295 2.78125 10.5609 2.78125 11C2.78125 11.4391 3.01914 12.187 3.66528 13.1433C4.28988 14.0676 5.21828 15.0696 6.39287 15.9955C8.74716 17.8512 11.9749 19.3125 15.5 19.3125C19.0251 19.3125 22.2528 17.8512 24.6071 15.9955C25.7817 15.0696 26.7101 14.0676 27.3347 13.1433C27.9809 12.187 28.2188 11.4391 28.2188 11C28.2188 10.5609 27.9809 9.81295 27.3347 8.85673C26.7101 7.93238 25.7817 6.93039 24.6071 6.00453C22.2528 4.14879 19.0251 2.6875 15.5 2.6875C11.9749 2.6875 8.74716 4.14879 6.39287 6.00453C5.21828 6.93039 4.28988 7.93238 3.66528 8.85673ZM4.98492 4.12047C7.65238 2.01788 11.3621 0.3125 15.5 0.3125C19.6379 0.3125 23.3476 2.01788 26.0151 4.12047C27.3514 5.17378 28.4549 6.34887 29.2345 7.50265C29.9926 8.62455 30.5312 9.85573 30.5312 11C30.5312 12.1443 29.9926 13.3755 29.2345 14.4974C28.4549 15.6511 27.3514 16.8262 26.0151 17.8795C23.3476 19.9821 19.6379 21.6875 15.5 21.6875C11.3621 21.6875 7.65238 19.9821 4.98492 17.8795C3.64863 16.8262 2.54508 15.6511 1.76545 14.4974C1.00736 13.3755 0.46875 12.1443 0.46875 11C0.46875 9.85573 1.00736 8.62455 1.76545 7.50265C2.54508 6.34887 3.64863 5.17378 4.98492 4.12047Z" fill="#626262"/>
</svg>
