<svg width="28" height="24" viewBox="0 0 28 24" fill="none" xmlns="http://www.w3.org/2000/svg">
<path fill-rule="evenodd" clip-rule="evenodd" d="M0.355469 8.03503C0.355469 3.72429 4.09661 0.405151 8.4879 0.405151C10.7515 0.405151 12.7434 1.47807 14.1727 2.86634C15.6021 1.47807 17.5939 0.405151 19.8575 0.405151C24.2488 0.405151 27.9899 3.72429 27.9899 8.03503C27.9899 10.9879 26.7442 13.5847 25.0183 15.7798C23.2954 17.971 21.0418 19.8307 18.8839 21.3419C18.0598 21.9191 17.226 22.4515 16.4628 22.8444C15.7463 23.2132 14.9224 23.5512 14.1727 23.5512C13.423 23.5512 12.5991 23.2132 11.8826 22.8444C11.1195 22.4515 10.2857 21.9191 9.46147 21.3419C7.30364 19.8307 5.04997 17.971 3.32708 15.7798C1.6012 13.5847 0.355469 10.9879 0.355469 8.03503ZM8.4879 2.79957C5.20453 2.79957 2.72414 5.24043 2.72414 8.03503C2.72414 10.2754 3.66495 12.3613 5.18138 14.2899C6.70079 16.2224 8.74517 17.9274 10.8104 19.3736C11.5918 19.9209 12.3279 20.3866 12.9575 20.7107C13.6337 21.0588 14.0253 21.1568 14.1727 21.1568C14.3201 21.1568 14.7117 21.0588 15.3879 20.7107C16.0175 20.3866 16.7536 19.9209 17.535 19.3736C19.6002 17.9274 21.6446 16.2224 23.164 14.2899C24.6805 12.3613 25.6213 10.2754 25.6213 8.03503C25.6213 5.24043 23.1409 2.79957 19.8575 2.79957C17.9718 2.79957 16.211 3.93839 15.1116 5.38381C14.8874 5.67855 14.5405 5.85127 14.1727 5.85127C13.8049 5.85127 13.458 5.67855 13.2338 5.38381C12.1344 3.93839 10.3736 2.79957 8.4879 2.79957Z" fill="#626262"/>
</svg>
