<svg width="28" height="21" viewBox="0 0 28 21" fill="none" xmlns="http://www.w3.org/2000/svg">
<path fill-rule="evenodd" clip-rule="evenodd" d="M0.792723 17.6302C0.451116 17.2664 0.371168 16.7204 0.593483 16.2695L1.67496 14.076C4.23454 8.88451 9.41909 5.61233 15.085 5.61233H15.6168C15.6555 4.74723 15.7056 3.88253 15.7669 3.01846L15.8715 1.54495C15.9566 0.346653 17.2575 -0.323204 18.2433 0.323717C21.4772 2.44595 24.2886 5.18051 26.5276 8.38163L27.2308 9.38695C27.5203 9.80095 27.5203 10.3586 27.2308 10.7726L26.5276 11.7779C24.2886 14.979 21.4772 17.7136 18.2433 19.8358C17.2575 20.4827 15.9566 19.8129 15.8715 18.6146L15.7669 17.1411C15.6937 16.1092 15.6365 15.0764 15.5954 14.0431C12.2811 13.9448 8.97083 14.6318 5.92856 16.0739L2.10956 17.8841C1.66273 18.0959 1.13433 17.9941 0.792723 17.6302ZM4.21252 14.2716L4.95949 13.9175C8.67667 12.1555 12.7552 11.4117 16.8023 11.7309C17.3916 11.7774 17.852 12.273 17.8695 12.8798C17.9087 14.2436 17.9767 15.6068 18.0733 16.9684L18.0817 17.0863C20.6153 15.247 22.8357 12.9854 24.6495 10.3923L24.868 10.0798L24.6495 9.76725C22.8357 7.17415 20.6153 4.91254 18.0817 3.07324L18.0733 3.19113C17.987 4.40651 17.9236 5.62317 17.8831 6.84043C17.8618 7.4801 17.3507 7.98734 16.7275 7.98734L15.085 7.98733C10.6183 7.98733 6.50523 10.3907 4.21252 14.2716Z" fill="#626262"/>
</svg>
