<svg width="26" height="22" viewBox="0 0 26 22" fill="none" xmlns="http://www.w3.org/2000/svg">
<path d="M15.6664 7.00002C15.6664 5.89545 16.5619 5.00002 17.6664 5.00002C18.771 5.00002 19.6664 5.89545 19.6664 7.00002C19.6664 8.10459 18.771 9.00002 17.6664 9.00002C16.5619 9.00002 15.6664 8.10459 15.6664 7.00002Z" fill="#626262"/>
<path fill-rule="evenodd" clip-rule="evenodd" d="M6.6898 1.21142C10.8885 0.846436 15.111 0.846436 19.3097 1.21142L21.3234 1.38647C23.2501 1.55396 24.811 3.02015 25.0986 4.93267C25.7035 8.95496 25.7035 13.0451 25.0986 17.0674C24.811 18.9799 23.2501 20.4461 21.3234 20.6136L19.3097 20.7886C15.111 21.1536 10.8885 21.1536 6.6898 20.7886L4.67616 20.6136C2.7494 20.4461 1.1885 18.9799 0.900907 17.0674C0.296052 13.0451 0.296052 8.95496 0.900907 4.93267C1.1885 3.02015 2.7494 1.55396 4.67615 1.38647L6.6898 1.21142ZM19.1365 3.20391C15.0531 2.84894 10.9465 2.84894 6.863 3.20391L4.84936 3.37895C3.84359 3.46638 3.0288 4.23174 2.87867 5.23008C2.53529 7.51357 2.3969 9.82005 2.46349 12.1221L7.62598 6.95958C7.82072 6.76484 8.08716 6.65903 8.36246 6.66712C8.63775 6.67521 8.89752 6.79648 9.08049 7.00232L13.9757 12.5095L17.3502 11.3847C17.7276 11.2589 18.1436 11.3687 18.4097 11.6644L23.1019 16.8779C23.1091 16.8422 23.1154 16.8063 23.1209 16.77C23.6961 12.9448 23.6961 9.0552 23.1209 5.23008C22.9707 4.23174 22.1559 3.46638 21.1502 3.37895L19.1365 3.20391ZM21.8266 18.4507L17.3613 13.4892L13.9826 14.6154C13.6031 14.7419 13.1848 14.63 12.919 14.3311L8.29027 9.12372L2.63202 14.782C2.69706 15.4461 2.77928 16.109 2.87867 16.77C3.0288 17.7683 3.84359 18.5336 4.84936 18.6211L6.863 18.7961C10.9465 19.1511 15.0531 19.1511 19.1365 18.7961L21.1502 18.6211C21.3885 18.6004 21.6161 18.5416 21.8266 18.4507Z" fill="#626262"/>
</svg>
