<svg width="8" height="11" viewBox="0 0 8 11" fill="none" xmlns="http://www.w3.org/2000/svg">
<path d="M3.68225 0.00799942C4.42892 0.00799942 5.07425 0.146666 5.61825 0.424C6.16225 0.690666 6.57292 1.05867 6.85025 1.528C7.13825 1.98667 7.28225 2.49867 7.28225 3.064C7.28225 3.65067 7.15425 4.216 6.89825 4.76C6.65292 5.304 6.22625 5.91733 5.61825 6.6C5.02092 7.28267 4.14625 8.16267 2.99425 9.24H7.52225L7.26625 11H0.40225V9.352C1.74625 8.008 2.71692 7.00533 3.31425 6.344C3.91158 5.68267 4.33292 5.12267 4.57825 4.664C4.82358 4.20533 4.94625 3.736 4.94625 3.256C4.94625 2.79733 4.81292 2.43467 4.54625 2.168C4.27958 1.90133 3.92225 1.768 3.47425 1.768C3.07958 1.768 2.72758 1.85867 2.41825 2.04C2.10892 2.21067 1.78358 2.49867 1.44225 2.904L0.08225 1.816C0.999583 0.610666 2.19958 0.00799942 3.68225 0.00799942Z" fill="#171717"/>
</svg>
